HIERARCHY
ROOT Hips
{
	OFFSET 0.000000 0.000000 0.000000
	CHANNELS 6 Xposition Yposition Zposition Zrotation Yrotation Xrotation 
	JOINT LHipJoint
	{
		OFFSET 0.000000 0.000000 0.000000
		CHANNELS 3 Zrotation Yrotation Xrotation
		JOINT LeftUpLeg
		{
			OFFSET 1.363060 -1.794630 0.839290
			CHANNELS 3 Zrotation Yrotation Xrotation
			JOINT LeftLeg
			{
				OFFSET 2.448110 -6.726130 0.000000
				CHANNELS 3 Zrotation Yrotation Xrotation
				JOINT LeftFoot
				{
					OFFSET 2.562200 -7.039590 0.000000
					CHANNELS 3 Zrotation Yrotation Xrotation
					JOINT LeftToeBase
					{
						OFFSET 0.157640 -0.433110 2.322550
						CHANNELS 3 Zrotation Yrotation Xrotation
						End Site
						{
							OFFSET 0.000000 0.000000 0.000000
						}
					}
				}
			}
		}
	}
	JOINT RHipJoint
	{
		OFFSET 0.000000 0.000000 0.000000
		CHANNELS 3 Zrotation Yrotation Xrotation
		JOINT RightUpLeg
		{
			OFFSET -1.305520 -1.794630 0.839290
			CHANNELS 3 Zrotation Yrotation Xrotation
			JOINT RightLeg
			{
				OFFSET -2.542530 -6.985550 0.000000
				CHANNELS 3 Zrotation Yrotation Xrotation
				JOINT RightFoot
				{
					OFFSET -2.568260 -7.056230 0.000000
					CHANNELS 3 Zrotation Yrotation Xrotation
					JOINT RightToeBase
					{
						OFFSET -0.164730 -0.452590 2.363150
						CHANNELS 3 Zrotation Yrotation Xrotation
						End Site
						{
							OFFSET 0.000000 0.000000 0.000000
						}
					}
				}
			}
		}
	}
	JOINT LowerBack
	{
		OFFSET 0.000000 0.000000 0.000000
		CHANNELS 3 Zrotation Yrotation Xrotation
		JOINT Spine
		{
			OFFSET 0.028270 2.035590 -0.193380
			CHANNELS 3 Zrotation Yrotation Xrotation
			JOINT Spine1
			{
				OFFSET 0.056720 2.048850 -0.042750
				CHANNELS 3 Zrotation Yrotation Xrotation
				JOINT Neck
				{
					OFFSET 0.000000 0.000000 0.000000
					CHANNELS 3 Zrotation Yrotation Xrotation
					JOINT Neck1
					{
						OFFSET -0.054170 1.746240 0.172020
						CHANNELS 3 Zrotation Yrotation Xrotation
						JOINT Head
						{
							OFFSET 0.104070 1.761360 -0.123970
							CHANNELS 3 Zrotation Yrotation Xrotation
							End Site
							{
								OFFSET 0.000000 0.000000 0.000000
							}
						}
					}
				}
				JOINT LeftShoulder
				{
					OFFSET 0.000000 0.000000 0.000000
					CHANNELS 3 Zrotation Yrotation Xrotation
					JOINT LeftArm
					{
						OFFSET 3.362410 1.200890 -0.311210
						CHANNELS 3 Zrotation Yrotation Xrotation
						JOINT LeftForeArm
						{
							OFFSET 4.983000 -0.000000 -0.000000
							CHANNELS 3 Zrotation Yrotation Xrotation
							JOINT LeftHand
							{
								OFFSET 3.483560 -0.000000 -0.000000
								CHANNELS 3 Zrotation Yrotation Xrotation
								JOINT LeftFingerBase
								{
									OFFSET 0.000000 0.000000 0.000000
									CHANNELS 3 Zrotation Yrotation Xrotation
									JOINT LeftHandIndex1
									{
										OFFSET 0.715260 -0.000000 -0.000000
										CHANNELS 3 Zrotation Yrotation Xrotation
										End Site
										{
											OFFSET 0.000000 0.000000 0.000000
										}
									}
								}
								JOINT LThumb
								{
									OFFSET 0.000000 0.000000 0.000000
									CHANNELS 3 Zrotation Yrotation Xrotation
									End Site
									{
										OFFSET 0.000000 0.000000 0.000000
									}
								}
							}
						}
					}
				}
				JOINT RightShoulder
				{
					OFFSET 0.000000 0.000000 0.000000
					CHANNELS 3 Zrotation Yrotation Xrotation
					JOINT RightArm
					{
						OFFSET -3.136600 1.374050 -0.404650
						CHANNELS 3 Zrotation Yrotation Xrotation
						JOINT RightForeArm
						{
							OFFSET -5.241900 -0.000000 -0.000000
							CHANNELS 3 Zrotation Yrotation Xrotation
							JOINT RightHand
							{
								OFFSET -3.444170 -0.000000 -0.000000
								CHANNELS 3 Zrotation Yrotation Xrotation
								JOINT RightFingerBase
								{
									OFFSET 0.000000 0.000000 0.000000
									CHANNELS 3 Zrotation Yrotation Xrotation
									JOINT RightHandIndex1
									{
										OFFSET -0.622530 -0.000000 -0.000000
										CHANNELS 3 Zrotation Yrotation Xrotation
										End Site
										{
											OFFSET 0.000000 0.000000 0.000000
										}
									}
								}
								JOINT RThumb
								{
									OFFSET 0.000000 0.000000 0.000000
									CHANNELS 3 Zrotation Yrotation Xrotation
									End Site
									{
										OFFSET 0.000000 0.000000 0.000000
									}
								}
							}
						}
					}
				}
			}
		}
	}
}
MOTION
Frames: 9
Frame Time: 0.008333
8.237985 23.111987 6.581097 -177.088015 61.749695 -160.367606 13.345786 -2.136404 -6.477618 -24.623234 -0.998917 -31.461214 0.541502 18.708811 39.835017 -6.389084 20.380291 12.047662 2.761700 -10.299000 -29.950500 -11.481026 2.482277 -5.062655 28.508701 16.573586 -22.256206 3.624078 -15.317649 27.935763 6.820860 -21.023077 0.876867 0.000000 0.039800 -0.109200 7.717886 2.579843 -4.603815 1.016135 2.361936 -4.964832 -2.909567 1.555503 1.235119 -4.884641 -7.644058 -14.833739 8.425499 -8.641589 12.781163 1.613400 -2.787200 14.261700 -6.705261 -7.496951 -3.421655 -78.665933 9.400760 18.726562 12.171079 -16.339215 -2.897070 -1.464781 -2.640341 -36.862415 16.155206 -0.316415 0.326400 -7.125000 0.000000 0.000000 -6.081800 30.953200 2.098000 7.283789 10.277855 -1.185297 68.365845 -2.750796 13.945335 -15.686612 19.125227 -4.310735 2.387952 2.035769 -9.108156 -21.104503 -17.108978 7.967100 7.125000 0.000000 0.000000 4.345100 -50.034900 -0.540200 
8.238786 23.118394 6.555582 -177.151084 62.589844 -160.420327 13.448355 -2.175174 -6.460535 -24.377260 -1.921537 -31.405290 0.342202 18.779752 40.009225 -5.259678 17.578757 12.175595 2.629100 -10.069000 -29.200400 -11.481796 2.509027 -5.067683 28.304191 16.839264 -22.151973 3.644907 -15.288441 27.855490 6.665868 -20.685037 1.221146 -0.000500 0.144800 -0.397900 7.856505 2.560467 -4.459921 1.030117 2.314822 -4.949452 -2.953017 1.529946 1.258184 -4.788919 -7.699263 -14.838164 8.475965 -8.747504 12.828706 1.613800 -2.806700 14.304400 -6.714975 -7.457974 -3.421544 -78.579428 9.511792 19.228104 12.051017 -16.202930 -2.850469 -1.443536 -2.556379 -36.378865 15.762302 -0.514352 0.241000 -7.125000 0.000000 0.000000 -6.437900 30.705600 2.260600 7.289830 10.264494 -1.174664 68.237640 -2.755655 13.646997 -15.748749 19.205282 -4.344455 2.368128 2.066519 -9.454172 -21.010573 -17.151177 7.955200 7.125000 0.000000 0.000000 4.457100 -50.083500 -0.559500 
8.240387 23.124802 6.529380 -177.257930 63.440799 -160.504515 13.542299 -2.221375 -6.441334 -24.127324 -2.913605 -31.304397 0.110834 18.821951 40.042873 -4.161568 14.888264 12.275861 2.480100 -9.801600 -28.336500 -11.482421 2.537969 -5.072814 28.072234 17.136824 -22.052746 3.661815 -15.267326 27.787167 6.519920 -20.368934 1.547248 -0.001700 0.262400 -0.721100 7.999883 2.547367 -4.346178 1.027336 2.282833 -4.926442 -3.085255 1.506470 1.333347 -4.628280 -7.757611 -14.862368 8.535191 -8.883632 12.866457 1.612100 -2.831500 14.337000 -6.735033 -7.422739 -3.408549 -78.375849 9.581925 19.796364 11.927753 -16.065624 -2.802459 -1.437489 -2.483458 -36.018563 15.484319 -0.722092 0.155800 -7.125000 0.000000 0.000000 -6.683200 30.444100 2.389900 7.285535 10.242390 -1.168068 68.190127 -2.705596 13.323026 -15.790404 19.272211 -4.372187 2.352194 2.095525 -9.733295 -20.927781 -17.218264 7.958200 7.125000 0.000000 0.000000 4.562600 -50.160800 -0.581500 
8.243019 23.130866 6.502606 -177.413247 64.299393 -160.626131 13.626011 -2.275069 -6.419706 -23.875396 -3.974103 -31.158616 -0.145083 18.836397 39.931608 -3.142398 12.415340 12.351971 2.330900 -9.523800 -27.447900 -11.484675 2.569008 -5.077795 27.813799 17.466376 -21.960434 3.674335 -15.255850 27.734380 6.382250 -20.071761 1.851056 -0.003700 0.391400 -1.075600 8.138134 2.532030 -4.259377 1.014684 2.252787 -4.898519 -3.271555 1.481158 1.445370 -4.427407 -7.810344 -14.898904 8.596776 -9.027941 12.900635 1.608300 -2.855700 14.362900 -6.760538 -7.388784 -3.387591 -78.099640 9.626899 20.389298 11.803268 -15.930065 -2.753404 -1.446127 -2.424513 -35.767670 15.324735 -0.920003 0.076800 -7.125000 0.000000 0.000000 -6.817200 30.192700 2.479600 7.275327 10.212614 -1.163677 68.184337 -2.624828 13.044083 -15.820505 19.336779 -4.402677 2.355151 2.126963 -9.982846 -21.002460 -17.366529 8.058300 7.125000 0.000000 0.000000 4.514600 -50.349000 -0.596200 
8.246909 23.136472 6.475146 -177.602832 65.168915 -160.772078 13.698170 -2.335781 -6.395559 -23.614881 -5.094363 -30.968713 -0.420262 18.821635 39.676975 -2.235716 10.229029 12.399597 2.190200 -9.251500 -26.585400 -11.490089 2.601843 -5.082367 27.538351 17.828003 -21.875214 3.683654 -15.253385 27.694903 6.250387 -19.788243 2.132613 -0.006700 0.529500 -1.454900 8.268487 2.508152 -4.198441 0.999247 2.212406 -4.867847 -3.471160 1.450727 1.579017 -4.240898 -7.852340 -14.927373 8.669326 -9.155201 12.931401 1.624000 -2.875800 14.379900 -6.790819 -7.353327 -3.362625 -77.803518 9.664997 20.949931 11.682280 -15.801623 -2.706750 -1.442984 -2.386117 -35.610197 15.159264 -1.010873 0.039700 -7.125000 0.000000 0.000000 -6.961000 30.072600 2.552700 7.263009 10.177553 -1.157826 68.185095 -2.518112 12.809764 -15.831803 19.383326 -4.424002 2.359656 2.148543 -10.147227 -21.075232 -17.474044 8.138300 7.125000 0.000000 0.000000 4.459400 -50.487600 -0.604100 
8.251600 23.141850 6.447113 -177.829240 66.056531 -160.942244 13.758423 -2.403011 -6.367583 -23.347346 -6.267800 -30.741590 -0.712210 18.777090 39.283244 -1.458216 8.365426 12.425446 2.063400 -8.997000 -25.785900 -11.499003 2.637624 -5.086848 27.243731 18.216662 -21.802632 3.690817 -15.258903 27.665192 6.119441 -19.507188 2.399379 -0.010700 0.669300 -1.839300 8.371446 2.471194 -4.151930 0.988148 2.155435 -4.838553 -3.637277 1.414598 1.707141 -4.099590 -7.879471 -14.937110 8.747425 -9.247459 12.962579 1.658800 -2.887900 14.391500 -6.819870 -7.314994 -3.340136 -77.540286 9.717441 21.432842 11.569670 -15.686038 -2.664461 -1.426469 -2.365413 -35.511308 14.972740 -1.001174 0.041000 -7.125000 0.000000 0.000000 -7.129500 30.076600 2.614700 7.253531 10.141817 -1.148628 68.152502 -2.411987 12.666791 -15.833168 19.417839 -4.439659 2.367232 2.163531 -10.249837 -21.161693 -17.559064 8.213100 7.125000 0.000000 0.000000 4.383600 -50.600400 -0.606000 
8.257664 23.146884 6.418394 -178.069004 66.966752 -161.117289 13.806686 -2.475945 -6.334916 -23.060536 -7.493823 -30.474126 -1.017498 18.701370 38.758546 -0.821462 6.851516 12.423435 1.957900 -8.777800 -25.102600 -11.510733 2.675321 -5.091136 26.942947 18.621583 -21.739063 3.698093 -15.268697 27.639723 5.982423 -19.213063 2.660998 -0.015700 0.808400 -2.221600 8.455839 2.425741 -4.115432 0.981446 2.086461 -4.811382 -3.771884 1.375166 1.824854 -3.994452 -7.886556 -14.930732 8.826029 -9.299977 12.999411 1.706900 -2.888400 14.402400 -6.844999 -7.274107 -3.321306 -77.309510 9.792664 21.836792 11.470156 -15.590467 -2.629696 -1.387581 -2.362817 -35.473682 14.720225 -0.871385 0.086800 -7.125000 0.000000 0.000000 -7.366100 30.229400 2.675700 7.247670 10.106042 -1.137588 68.095671 -2.308087 12.591690 -15.824806 19.438805 -4.448631 2.375051 2.171653 -10.277664 -21.230606 -17.617553 8.268400 7.125000 0.000000 0.000000 4.320800 -50.678800 -0.605600 
8.264987 23.151804 6.389332 -178.306400 67.901926 -161.285022 13.843010 -2.553694 -6.295838 -22.742989 -8.775781 -30.166766 -1.333703 18.594252 38.112072 -0.324328 5.689014 12.391014 1.871600 -8.593300 -24.531100 -11.526394 2.715654 -5.095222 26.644693 19.043529 -21.681854 3.707694 -15.280335 27.614216 5.833752 -18.891525 2.908675 -0.020100 0.914500 -2.513600 8.504494 2.378637 -4.072783 0.982700 2.015512 -4.789459 -3.842571 1.338661 1.909975 -3.921914 -7.887536 -14.909673 8.892352 -9.331168 13.045490 1.747800 -2.883600 14.418200 -6.861015 -7.228968 -3.311321 -77.136137 9.907146 22.237597 11.375495 -15.504009 -2.597323 -1.361114 -2.358137 -35.509607 14.529594 -0.807237 0.107900 -7.125000 0.000000 0.000000 -7.540400 30.302400 2.726700 7.249658 10.073766 -1.124738 67.988592 -2.240053 12.582925 -15.815677 19.455762 -4.460398 2.399483 2.176505 -10.283859 -21.451200 -17.700127 8.394500 7.125000 0.000000 0.000000 4.096200 -50.802100 -0.586500 
8.273797 23.156610 6.360156 -178.510928 68.877407 -161.410586 13.868157 -2.636411 -6.250836 -22.376471 -10.105535 -29.825950 -1.657593 18.454691 37.355103 0.044009 4.857995 12.328727 1.804400 -8.446200 -24.077800 -11.546461 2.760289 -5.098982 26.354463 19.492248 -21.635774 3.722164 -15.293265 27.581595 5.670260 -18.538547 3.154263 -0.023700 0.994400 -2.733400 8.524963 2.340396 -4.027307 0.986782 1.956991 -4.771787 -3.865505 1.310712 1.966763 -3.885816 -7.900895 -14.869910 8.956493 -9.366302 13.099866 1.792000 -2.884000 14.441400 -6.872653 -7.179529 -3.307733 -76.987826 10.059191 22.693778 11.287487 -15.430009 -2.567071 -1.373337 -2.340919 -35.665645 14.511128 -0.938952 0.059200 -7.125000 0.000000 0.000000 -7.539800 30.137600 2.756400 7.252856 10.044829 -1.111570 67.863999 -2.197891 12.606531 -15.807497 19.469785 -4.471821 2.429196 2.174760 -10.250799 -21.722838 -17.761465 8.531000 7.125000 0.000000 0.000000 3.810100 -50.905900 -0.555100 
